<svg xmlns="http://www.w3.org/2000/svg" width="20" height="20" viewBox="0 0 20 20"><defs><style>.a{fill:none;}.b{fill:#595959;}</style></defs><rect class="a" width="20" height="20"/><path class="b" d="M-1898-8536a2,2,0,0,1-2-2v-14a2,2,0,0,1,2-2h12a2,2,0,0,1,2,2v14a2,2,0,0,1-2,2Zm-.4-15.9v13.8a.5.5,0,0,0,.5.5h11.8a.5.5,0,0,0,.5-.5v-13.8a.5.5,0,0,0-.5-.5h-11.8A.5.5,0,0,0-1898.4-8551.9Zm5.609,10.828v-5.871l-2.067,1.921a.854.854,0,0,1-.614.256.865.865,0,0,1-.59-.234.789.789,0,0,1-.238-.554.786.786,0,0,1,.225-.561l3.547-3.332a.893.893,0,0,1,.625-.255.834.834,0,0,1,.578.233l3.388,3.3a.788.788,0,0,1,.236.557.782.782,0,0,1-.223.563.912.912,0,0,1-.642.285.872.872,0,0,1-.6-.234l-1.936-1.889v5.755a.842.842,0,0,1-.816.874l-.026,0A.839.839,0,0,1-1892.791-8541.07Z" transform="translate(1902 8555)"/></svg>